# xmcd
#
# Track frame offsets:
#	150
#	29286
#	43543
#	57093
#	74721
#	88373
#	117398
#	134826
#	153371
#	169736
#	181586
#	199751
#
# Disc length: 2971 seconds
#
# Revision: 0
# Processed by: cddbd v1.5.1PL0 Copyright (c) Steve Scherf et al.
# Submitted via: dBpowerAMP V4.0
#
DISCID=ac0b990c
DTITLE=Tomas Andersson Wij - Ett slag för dig
DYEAR=1900
DGENRE=Blues
TTITLE0=Sanningen om dig
TTITLE1=Landet vi föddes i
TTITLE2=Du skulle tagit det helt fel
TTITLE3=Höga berget
TTITLE4=Ett slag för dig
TTITLE5=Hej då
TTITLE6=Gör nånting vackert
TTITLE7=Älskling
TTITLE8=Där får jag andas ut
TTITLE9=Guds röst
TTITLE10=Segla med
TTITLE11=En värld som förtjänar dig
EXTD=
EXTT0=
EXTT1=
EXTT2=
EXTT3=
EXTT4=
EXTT5=
EXTT6=
EXTT7=
EXTT8=
EXTT9=
EXTT10=
EXTT11=
PLAYORDER=
